<?xml version="1.0" encoding="UTF-8" standalone="no"?>
<!DOCTYPE svg PUBLIC "-//W3C//DTD SVG 1.1//EN" "http://www.w3.org/Graphics/SVG/1.1/DTD/svg11.dtd">
<svg width="100%" height="100%" viewBox="0 0 668 1051" version="1.1" xmlns="http://www.w3.org/2000/svg" xmlns:xlink="http://www.w3.org/1999/xlink" xml:space="preserve" xmlns:serif="http://www.serif.com/" style="fill-rule:evenodd;clip-rule:evenodd;stroke-linejoin:round;stroke-miterlimit:2;">
    <g transform="matrix(1,0,0,1,-284.353,-92.6705)">
        <g transform="matrix(1.00426,0,0,1.00426,115.869,89.7563)">
            <g transform="matrix(0.995756,0,0,0.995756,-865.273,27.7957)">
                <path d="M1185.85,684.967L1086.34,1007.37C1082.27,1020.56 1068.26,1027.96 1055.08,1023.89C1041.89,1019.82 1034.49,1005.81 1038.56,992.627L1153.51,620.203L1099.06,511.168C1092.9,498.824 1097.92,483.797 1110.26,477.633C1122.61,471.469 1137.63,476.487 1143.8,488.832L1174.86,551.033L1273.84,230.332C1256.62,221.844 1237.25,217.074 1216.77,217.074C1145.4,217.074 1087.45,275.022 1087.45,346.397C1087.45,371.018 1094.34,394.042 1106.31,413.637C1113.5,425.413 1109.78,440.812 1098,448.003C1086.23,455.195 1070.83,451.473 1063.64,439.698C1047.03,412.507 1037.45,380.562 1037.45,346.397C1037.45,247.426 1117.8,167.074 1216.77,167.074C1242.35,167.074 1266.69,172.442 1288.72,182.113L1347.2,-7.373C1350.44,-17.852 1360.12,-25 1371.09,-25C1382.06,-25 1391.75,-17.852 1394.98,-7.373L1453.46,182.113C1475.49,172.442 1499.83,167.074 1525.41,167.074C1624.38,167.074 1704.73,247.426 1704.73,346.397C1704.73,380.548 1695.16,412.481 1678.57,439.665C1671.38,451.442 1655.98,455.167 1644.2,447.978C1632.43,440.789 1628.7,425.391 1635.89,413.614C1647.85,394.024 1654.73,371.008 1654.73,346.397C1654.73,275.022 1596.79,217.074 1525.41,217.074C1504.93,217.074 1485.56,221.844 1468.35,230.332L1567.33,551.033L1598.38,488.832C1604.55,476.487 1619.58,471.469 1631.92,477.633C1644.27,483.797 1649.28,498.824 1643.12,511.168L1588.68,620.203L1703.62,992.627C1707.69,1005.81 1700.29,1019.82 1687.11,1023.89C1673.92,1027.96 1659.91,1020.56 1655.85,1007.37L1556.34,684.967L1393.46,1011.17C1389.23,1019.64 1380.57,1025 1371.09,1025C1361.62,1025 1352.96,1019.64 1348.73,1011.17L1185.85,684.967ZM1315.95,263.433L1214.23,593L1527.95,593L1426.23,263.433C1407.64,285.632 1396.35,314.156 1396.09,345.288C1396.09,345.658 1396.1,346.027 1396.1,346.397C1396.1,360.204 1384.9,371.397 1371.1,371.397L1371.09,371.397C1357.28,371.397 1346.09,360.204 1346.09,346.397C1346.09,346.027 1346.09,345.658 1346.09,345.288C1345.83,314.156 1334.54,285.632 1315.95,263.433ZM1409.6,209.528L1371.09,84.77L1332.59,209.528C1347.81,222.425 1360.85,237.813 1371.09,255.06C1381.33,237.813 1394.38,222.425 1409.6,209.528ZM1220.78,643L1371.09,944.038L1521.41,643L1220.78,643Z" style="fill:white;"/>
            </g>
        </g>
    </g>
</svg>
