<?xml version="1.0" encoding="UTF-8" standalone="no"?>
<!DOCTYPE svg PUBLIC "-//W3C//DTD SVG 1.1//EN" "http://www.w3.org/Graphics/SVG/1.1/DTD/svg11.dtd">
<svg width="100%" height="100%" viewBox="0 0 229 360" version="1.1" xmlns="http://www.w3.org/2000/svg" xmlns:xlink="http://www.w3.org/1999/xlink" xml:space="preserve" xmlns:serif="http://www.serif.com/" style="fill-rule:evenodd;clip-rule:evenodd;stroke-linejoin:round;stroke-miterlimit:2;">
    <g transform="matrix(1,0,0,1,-141.596,-76)">
        <g id="a" transform="matrix(0.342896,0,0,0.342896,140.278,75.9427)">
            <path d="M344.713,1.116L349.227,2.978L353.292,5.681L356.755,9.123L359.482,13.173L361.371,17.675L419.856,207.166L420.506,206.88L421.509,206.449L422.515,206.022L423.524,205.603L424.537,205.188L425.553,204.78L426.572,204.378L427.593,203.982L428.618,203.593L429.647,203.208L431.193,202.644L432.748,202.094L433.786,201.735L434.83,201.381L435.875,201.035L436.923,200.694L437.975,200.36L439.028,200.032L440.084,199.71L441.145,199.394L442.206,199.085L443.271,198.783L444.338,198.486L445.944,198.054L447.018,197.774L448.094,197.5L449.174,197.233L450.254,196.973L451.339,196.718L452.425,196.471L453.515,196.23L454.606,195.996L455.699,195.768L456.796,195.547L457.893,195.333L458.995,195.125L460.098,194.924L461.757,194.636L462.865,194.452L463.977,194.275L465.089,194.105L466.205,193.941L467.321,193.785L468.441,193.635L469.563,193.492L470.685,193.357L471.811,193.228L472.939,193.106L474.069,192.991L475.199,192.883L476.333,192.782L477.468,192.689L478.604,192.602L480.314,192.485L481.455,192.417L482.598,192.355L483.743,192.301L484.889,192.253L486.038,192.213L487.187,192.18L488.338,192.155L489.492,192.137L490.646,192.126L491.802,192.122L492.958,192.126L494.112,192.137L495.265,192.155L496.417,192.18L497.566,192.213L498.715,192.253L499.86,192.301L501.006,192.355L502.149,192.417L503.29,192.485L504.429,192.561L505.568,192.645L506.703,192.735L507.837,192.832L508.97,192.936L510.101,193.048L511.228,193.166L512.355,193.291L513.48,193.424L514.602,193.563L515.722,193.709L516.84,193.862L517.957,194.022L519.071,194.189L520.182,194.363L521.292,194.543L522.401,194.731L523.505,194.924L524.608,195.125L525.71,195.333L526.807,195.547L527.904,195.768L528.998,195.996L530.088,196.23L531.179,196.471L532.264,196.718L533.349,196.973L534.43,197.233L535.509,197.5L536.586,197.774L537.659,198.054L538.731,198.341L539.8,198.634L540.865,198.933L541.929,199.239L542.989,199.551L544.575,200.031L546.155,200.526L547.728,201.034L549.295,201.557L550.337,201.914L551.374,202.276L552.409,202.644L553.442,203.019L554.985,203.592L556.01,203.983L557.032,204.378L558.05,204.78L559.067,205.189L560.079,205.603L561.087,206.022L562.095,206.449L563.098,206.88L564.098,207.318L565.095,207.762L566.088,208.211L567.078,208.667L568.066,209.128L569.049,209.595L570.029,210.067L571.007,210.546L571.981,211.03L572.95,211.52L573.918,212.016L575.362,212.769L576.798,213.536L577.751,214.054L578.7,214.577L580.118,215.373L581.057,215.91L581.996,216.454L582.928,217.001L583.859,217.555L584.784,218.114L585.706,218.678L586.626,219.249L587.541,219.824L588.451,220.404L589.811,221.285L590.713,221.879L591.611,222.478L592.951,223.386L594.283,224.307L595.164,224.926L596.043,225.551L596.917,226.181L598.221,227.135L599.517,228.102L600.375,228.752L601.23,229.407L602.504,230.399L603.349,231.068L604.189,231.74L605.024,232.417L606.27,233.442L607.096,234.133L607.917,234.827L609.142,235.879L609.951,236.584L610.758,237.296L611.56,238.012L612.358,238.732L613.152,239.458L613.941,240.189L614.725,240.923L615.505,241.662L616.28,242.406L617.052,243.155L617.819,243.908L618.58,244.665L619.715,245.81L620.467,246.58L621.585,247.742L622.323,248.521L623.059,249.307L624.153,250.492L624.875,251.287L625.593,252.087L626.307,252.892L627.016,253.699L627.72,254.512L628.42,255.33L629.459,256.562L630.147,257.391L630.829,258.222L631.843,259.477L632.514,260.32L633.18,261.167L633.839,262.016L634.495,262.872L635.144,263.729L636.111,265.025L636.748,265.893L637.696,267.205L638.32,268.082L638.94,268.965L639.555,269.852L640.164,270.741L640.768,271.635L641.368,272.533L641.962,273.436L642.55,274.341L643.133,275.25L643.711,276.163L644.568,277.54L645.132,278.462L645.969,279.852L646.794,281.252L647.336,282.188L647.873,283.129L648.406,284.074L648.931,285.02L649.452,285.972L649.968,286.927L650.478,287.886L650.981,288.847L651.48,289.812L651.972,290.78L652.46,291.753L652.94,292.727L653.416,293.707L653.886,294.689L654.35,295.674L654.808,296.663L655.26,297.654L655.707,298.65L656.149,299.65L656.583,300.649L657.012,301.655L657.435,302.663L657.852,303.675L658.263,304.688L658.668,305.706L659.067,306.726L659.46,307.748L659.847,308.776L660.227,309.804L660.602,310.837L660.971,311.873L661.333,312.911L661.689,313.951L662.039,314.995L662.383,316.042L662.72,317.091L663.052,318.144L663.376,319.198L663.695,320.257L664.008,321.319L664.313,322.381L664.613,323.448L664.906,324.516L665.193,325.587L665.473,326.661L665.747,327.738L666.145,329.357L666.402,330.439L666.653,331.525L666.897,332.613L667.135,333.703L667.365,334.795L667.59,335.892L667.807,336.988L668.018,338.086L668.223,339.19L668.42,340.293L668.611,341.399L668.795,342.51L668.972,343.619L669.142,344.732L669.305,345.848L669.462,346.965L669.612,348.084L669.754,349.206L669.89,350.329L670.019,351.456L670.141,352.582L670.256,353.71L670.415,355.41L670.512,356.543L670.602,357.678L670.685,358.817L670.761,359.958L670.83,361.098L670.892,362.241L670.946,363.385L670.993,364.534L671.033,365.68L671.066,366.829L671.092,367.983L671.11,369.134L671.121,370.288L671.125,371.441L671.121,372.641L671.109,373.837L671.081,375.438L671.062,376.22L671.04,377.014L670.984,378.597L670.951,379.388L670.915,380.179L670.875,380.968L670.832,381.756L670.736,383.331L670.682,384.117L670.625,384.902L670.565,385.686L670.502,386.469L670.435,387.252L670.365,388.034L670.291,388.815L670.214,389.594L670.134,390.373L670.05,391.15L669.963,391.928L669.873,392.705L669.78,393.479L669.683,394.253L669.583,395.028L669.479,395.799L669.372,396.57L669.262,397.34L669.149,398.11L669.033,398.878L668.913,399.645L668.79,400.412L668.534,401.94L668.401,402.703L668.265,403.466L668.126,404.225L667.984,404.985L667.838,405.745L667.689,406.502L667.537,407.258L667.382,408.013L667.224,408.768L667.063,409.521L666.898,410.273L666.73,411.023L666.559,411.773L666.385,412.521L666.208,413.268L666.028,414.014L665.845,414.759L665.658,415.504L665.469,416.245L665.276,416.986L664.882,418.464L664.68,419.202L664.475,419.938L664.267,420.673L664.055,421.408L663.841,422.14L663.624,422.87L663.404,423.6L663.181,424.328L662.955,425.056L662.726,425.781L662.259,427.23L662.021,427.95L661.78,428.67L661.536,429.39L661.289,430.109L661.039,430.824L660.786,431.539L660.53,432.253L660.271,432.966L660.01,433.676L659.746,434.384L659.478,435.093L659.208,435.799L658.935,436.504L658.659,437.208L658.098,438.611L657.526,440.007L657.236,440.703L656.943,441.398L656.348,442.782L656.047,443.473L655.435,444.849L655.125,445.534L654.497,446.901L653.858,448.261L653.534,448.939L652.878,450.291L652.212,451.634L651.874,452.305L651.534,452.972L650.846,454.304L650.497,454.968L650.147,455.628L649.793,456.289L649.437,456.947L648.717,458.258L648.353,458.911L647.986,459.563L647.245,460.861L646.87,461.507L646.113,462.795L645.731,463.436L644.985,464.67L642.041,468.588L638.39,471.858L634.171,474.352L629.547,475.975L624.695,476.664L619.802,476.394L615.055,475.175L610.637,473.052L606.719,470.109L603.45,466.458L600.956,462.239L599.333,457.615L598.643,452.763L598.913,447.869L600.133,443.123L602.255,438.705L602.839,437.74L603.388,436.815L603.93,435.883L604.465,434.947L604.992,434.007L605.511,433.061L606.022,432.111L606.526,431.156L607.022,430.197L607.51,429.234L607.99,428.264L608.462,427.292L608.927,426.315L609.383,425.333L609.832,424.347L610.271,423.357L610.704,422.361L611.128,421.363L611.544,420.36L611.951,419.353L612.35,418.341L612.741,417.326L613.124,416.306L613.498,415.283L613.864,414.255L614.221,413.224L614.57,412.189L614.91,411.15L615.242,410.106L615.565,409.059L615.88,408.009L616.185,406.955L616.482,405.897L616.77,404.836L617.05,403.77L617.32,402.701L617.582,401.629L617.834,400.553L618.078,399.473L618.312,398.391L618.538,397.305L618.755,396.215L618.962,395.123L619.16,394.026L619.349,392.926L619.528,391.824L619.615,391.271L619.78,390.163L619.936,389.052L620.083,387.939L620.22,386.821L620.348,385.702L620.466,384.577L620.575,383.45L620.674,382.322L620.763,381.189L620.843,380.054L620.913,378.916L620.973,377.774L621.023,376.63L621.063,375.481L621.099,374.045L621.12,372.603L621.125,371.449L621.119,370.187L621.101,368.932L621.071,367.681L621.045,366.85L620.995,365.605L620.956,364.776L620.887,363.537L620.807,362.3L620.715,361.067L620.611,359.837L620.536,359.021L620.456,358.205L620.325,356.983L620.233,356.173L620.135,355.361L619.978,354.149L619.811,352.941L619.633,351.737L619.443,350.535L619.243,349.339L619.031,348.145L618.809,346.956L618.655,346.166L618.496,345.377L618.248,344.197L617.99,343.022L617.812,342.239L617.536,341.071L617.249,339.905L617.053,339.132L616.749,337.974L616.434,336.819L616.11,335.671L615.661,334.146L615.312,333.006L614.953,331.872L614.584,330.742L614.204,329.617L613.815,328.495L613.416,327.38L613.006,326.267L612.587,325.161L612.303,324.426L611.867,323.327L611.421,322.232L610.967,321.144L610.502,320.06L610.028,318.981L609.544,317.908L609.216,317.194L608.716,316.13L608.207,315.069L607.514,313.664L606.983,312.616L606.443,311.574L605.708,310.192L605.147,309.164L604.767,308.479L604.191,307.46L603.605,306.446L603.01,305.437L602.407,304.435L601.795,303.437L601.174,302.446L600.544,301.461L599.905,300.481L599.259,299.509L598.602,298.541L597.938,297.58L597.265,296.625L596.585,295.678L595.895,294.735L595.198,293.8L594.491,292.87L593.776,291.947L593.054,291.03L592.324,290.122L591.585,289.218L590.839,288.323L590.086,287.434L589.323,286.552L588.553,285.676L587.776,284.808L586.991,283.947L586.198,283.093L585.128,281.964L584.317,281.126L583.499,280.296L582.674,279.473L581.842,278.658L581.002,277.85L580.154,277.049L579.3,276.256L578.15,275.211L577.28,274.437L576.401,273.668L575.517,272.909L574.626,272.157L573.727,271.413L572.519,270.434L571.299,269.469L570.377,268.756L569.447,268.049L568.512,267.352L567.569,266.662L566.621,265.981L565.666,265.308L564.706,264.644L563.738,263.989L562.765,263.341L561.786,262.703L560.8,262.073L559.81,261.452L558.478,260.637L557.474,260.037L556.463,259.445L555.447,258.863L554.084,258.1L553.054,257.538L552.018,256.986L550.978,256.443L549.933,255.909L548.881,255.384L547.824,254.868L546.763,254.363L545.696,253.866L544.624,253.379L543.546,252.902L542.464,252.434L541.377,251.976L540.649,251.675L539.188,251.088L538.085,250.659L536.979,250.24L535.867,249.831L534.751,249.432L533.63,249.042L532.505,248.663L531.375,248.294L530.241,247.935L529.101,247.586L528.34,247.359L527.194,247.028L526.043,246.706L524.888,246.395L523.729,246.095L522.565,245.805L521.787,245.617L520.616,245.345L519.834,245.169L518.656,244.915L517.475,244.671L516.29,244.438L515.101,244.215L513.907,244.004L512.71,243.803L511.51,243.614L510.305,243.436L509.097,243.268L507.885,243.112L506.669,242.967L505.449,242.833L504.635,242.75L503.409,242.635L502.18,242.532L500.947,242.44L500.123,242.385L498.884,242.312L497.643,242.251L496.397,242.202L495.148,242.164L493.897,242.139L493.059,242.128L491.802,242.122L490.544,242.128L489.29,242.146L488.455,242.164L487.206,242.202L485.96,242.251L484.719,242.312L483.48,242.385L482.246,242.469L481.014,242.565L479.786,242.672L478.562,242.791L477.341,242.921L476.124,243.062L474.91,243.215L473.7,243.379L472.495,243.553L471.292,243.739L470.094,243.936L469.297,244.073L468.105,244.288L466.918,244.514L465.734,244.751L464.161,245.083L462.987,245.345L461.817,245.617L460.262,245.997L459.103,246.294L458.33,246.498L457.177,246.812L456.028,247.137L454.883,247.472L454.121,247.701L452.606,248.173L451.475,248.539L450.347,248.915L449.225,249.301L448.108,249.697L446.994,250.103L445.886,250.519L444.782,250.944L443.318,251.527L441.863,252.127L440.777,252.589L439.698,253.06L438.98,253.379L437.907,253.866L436.841,254.363L435.779,254.869L434.736,255.378L533.719,576.081L564.777,513.88L567.385,509.731L570.753,506.17L574.751,503.336L579.225,501.335L584.003,500.246L588.902,500.11L593.733,500.932L598.312,502.681L602.461,505.29L606.021,508.658L608.856,512.655L610.856,517.129L611.945,521.908L612.081,526.807L611.259,531.638L609.51,536.216L555.067,645.25L670.013,1017.68L670.992,1022.48L671.016,1027.38L670.083,1032.19L668.23,1036.73L665.527,1040.81L662.078,1044.3L658.016,1047.04L653.498,1048.94L648.696,1049.91L643.795,1049.94L638.984,1049.01L634.447,1047.15L630.359,1044.45L626.876,1041L624.134,1036.94L622.237,1032.42L522.729,710.014L359.849,1036.22L357.419,1040.13L354.311,1043.54L350.632,1046.31L346.505,1048.36L342.072,1049.62L337.483,1050.05L332.893,1049.62L328.46,1048.36L324.334,1046.31L320.654,1043.54L317.546,1040.13L315.116,1036.22L152.237,710.015L52.729,1032.42L50.831,1036.94L48.089,1041L44.607,1044.45L40.519,1047.15L35.982,1049.01L31.171,1049.94L26.27,1049.91L21.468,1048.94L16.949,1047.04L12.888,1044.3L9.439,1040.81L6.736,1036.73L4.882,1032.19L3.95,1027.38L3.973,1022.48L4.953,1017.68L119.899,645.251L65.455,536.216L63.706,531.638L62.884,526.807L63.02,521.908L64.109,517.129L66.11,512.655L68.945,508.658L72.505,505.29L76.654,502.681L81.232,500.932L86.063,500.11L90.962,500.246L95.741,501.335L100.215,503.336L104.212,506.17L107.58,509.731L110.189,513.88L141.247,576.081L240.23,255.378L239.539,255.039L238.48,254.531L237.77,254.196L236.702,253.703L235.627,253.219L234.549,252.745L233.465,252.28L232.375,251.825L231.282,251.38L230.183,250.944L229.448,250.659L228.341,250.24L227.601,249.966L226.486,249.564L225.366,249.171L224.243,248.788L223.114,248.416L221.981,248.053L220.844,247.701L219.702,247.359L218.172,246.919L217.405,246.706L216.25,246.396L215.091,246.095L213.927,245.805L213.149,245.617L211.979,245.345L210.804,245.083L209.626,244.832L208.443,244.592L206.86,244.288L205.668,244.073L204.472,243.869L203.273,243.676L202.471,243.553L201.265,243.379L200.459,243.268L199.247,243.112L198.031,242.967L196.811,242.833L195.997,242.75L194.771,242.635L193.542,242.532L192.72,242.469L191.485,242.385L190.246,242.312L189.005,242.251L187.759,242.202L186.51,242.164L185.259,242.139L184.421,242.128L183.164,242.122L181.906,242.128L180.652,242.146L179.817,242.164L178.568,242.202L177.322,242.251L176.081,242.312L174.842,242.385L173.608,242.469L172.376,242.565L171.148,242.672L169.924,242.791L168.703,242.921L167.486,243.062L166.272,243.215L165.062,243.379L163.857,243.553L162.654,243.739L161.456,243.936L160.659,244.073L159.467,244.288L158.28,244.514L157.096,244.751L155.523,245.083L154.349,245.345L153.179,245.617L151.624,245.997L150.464,246.294L148.923,246.706L148.155,246.919L146.626,247.359L145.483,247.701L144.346,248.054L143.213,248.416L142.085,248.788L140.961,249.171L139.841,249.564L138.727,249.966L137.248,250.518L136.144,250.944L135.046,251.38L133.952,251.825L132.863,252.28L131.779,252.745L130.7,253.219L129.626,253.703L128.558,254.196L127.494,254.699L126.436,255.211L125.383,255.733L124.335,256.264L123.292,256.804L121.911,257.539L120.54,258.289L119.179,259.056L118.164,259.642L117.491,260.037L116.487,260.637L115.488,261.247L114.495,261.865L113.507,262.492L112.526,263.128L111.551,263.772L110.582,264.425L109.619,265.086L108.662,265.756L107.711,266.434L106.767,267.121L105.829,267.816L104.898,268.519L103.974,269.23L103.055,269.95L102.143,270.678L101.238,271.414L100.34,272.157L99.448,272.909L98.564,273.668L97.686,274.436L96.815,275.211L96.238,275.732L95.379,276.52L94.527,277.315L93.403,278.388L92.568,279.201L91.74,280.021L90.919,280.849L89.837,281.964L89.034,282.809L88.239,283.66L87.451,284.52L86.67,285.386L85.642,286.551L84.88,287.434L84.126,288.323L83.379,289.219L82.641,290.122L81.669,291.336L80.949,292.255L80.238,293.179L79.535,294.11L78.84,295.048L78.153,295.993L77.475,296.943L76.583,298.22L75.925,299.185L75.275,300.156L74.633,301.134L74.001,302.117L73.377,303.106L72.762,304.101L72.155,305.102L71.558,306.109L70.969,307.121L70.389,308.14L69.63,309.507L69.072,310.537L68.523,311.574L67.983,312.616L67.452,313.664L66.93,314.717L66.418,315.775L65.915,316.839L65.422,317.907L64.938,318.981L64.62,319.7L64.307,320.421L63.846,321.506L63.394,322.598L62.952,323.693L62.52,324.793L62.237,325.529L61.821,326.637L61.282,328.123L60.89,329.242L60.507,330.366L60.135,331.494L59.772,332.627L59.42,333.765L59.078,334.907L58.638,336.436L58.32,337.589L58.013,338.746L57.716,339.905L57.429,341.071L57.244,341.849L56.975,343.022L56.717,344.197L56.47,345.377L56.233,346.561L56.007,347.749L55.792,348.94L55.588,350.136L55.395,351.336L55.272,352.138L55.097,353.344L54.934,354.554L54.781,355.768L54.64,356.984L54.51,358.205L54.391,359.43L54.318,360.248L54.219,361.478L54.131,362.712L54.078,363.536L54.031,364.362L53.97,365.604L53.921,366.849L53.894,367.682L53.873,368.516L53.851,369.768L53.841,371.025L53.846,372.603L53.866,374.045L53.886,374.909L53.921,376.058L53.967,377.204L54.022,378.348L54.087,379.488L54.161,380.625L54.246,381.76L54.34,382.891L54.444,384.02L54.558,385.145L54.681,386.267L54.813,387.387L54.955,388.502L55.107,389.615L55.268,390.725L55.438,391.832L55.618,392.935L55.807,394.035L56.005,395.132L56.213,396.225L56.429,397.314L56.655,398.402L56.89,399.485L57.134,400.564L57.386,401.64L57.648,402.713L57.919,403.783L58.198,404.848L58.487,405.91L58.784,406.968L59.09,408.023L59.405,409.074L59.728,410.121L60.06,411.164L60.4,412.204L60.75,413.24L61.107,414.271L61.473,415.299L61.847,416.322L62.231,417.344L62.622,418.359L63.021,419.37L63.429,420.378L63.845,421.381L64.27,422.38L64.702,423.376L65.143,424.366L65.592,425.353L66.048,426.335L66.513,427.312L66.985,428.285L67.466,429.254L67.955,430.219L68.451,431.178L68.955,432.133L69.467,433.083L69.986,434.029L70.514,434.97L71.048,435.906L71.591,436.837L72.141,437.764L72.725,438.729L74.848,443.146L76.069,447.893L76.34,452.786L75.651,457.638L74.029,462.263L71.535,466.482L68.267,470.134L64.349,473.078L59.932,475.201L55.185,476.421L50.292,476.692L45.44,476.004L40.815,474.381L36.596,471.888L32.944,468.62L30,464.702L29.639,464.108L28.871,462.827L28.491,462.184L28.114,461.539L27.739,460.892L27.367,460.244L26.997,459.594L26.63,458.942L26.266,458.289L25.904,457.634L25.545,456.977L25.188,456.318L24.484,454.997L24.135,454.333L23.79,453.668L23.106,452.333L22.769,451.663L22.434,450.991L22.102,450.318L21.772,449.643L21.445,448.967L21.121,448.29L20.481,446.929L19.853,445.562L19.235,444.188L18.93,443.499L18.33,442.117L17.74,440.729L17.162,439.335L16.877,438.635L16.595,437.935L16.316,437.232L16.04,436.528L15.496,435.116L15.229,434.409L14.964,433.699L14.702,432.988L14.443,432.275L14.187,431.562L13.934,430.847L13.684,430.13L13.437,429.412L13.193,428.693L12.713,427.25L12.478,426.527L12.246,425.802L11.79,424.349L11.567,423.62L11.129,422.158L10.915,421.426L10.704,420.692L10.496,419.957L10.291,419.22L10.089,418.482L9.89,417.744L9.694,417.004L9.501,416.262L9.125,414.776L8.941,414.031L8.761,413.285L8.584,412.537L8.41,411.788L8.239,411.038L8.071,410.287L7.906,409.535L7.744,408.782L7.586,408.028L7.431,407.272L7.279,406.515L7.13,405.758L6.984,404.999L6.702,403.477L6.566,402.715L6.433,401.952L6.304,401.188L6.054,399.656L5.934,398.889L5.704,397.35L5.594,396.58L5.384,395.036L5.284,394.262L5.187,393.488L5.093,392.713L5.003,391.937L4.916,391.159L4.832,390.38L4.752,389.602L4.675,388.821L4.601,388.04L4.531,387.258L4.464,386.475L4.34,384.907L4.23,383.335L4.18,382.548L4.09,380.971L4.014,379.392L3.981,378.6L3.952,377.808L3.926,377.016L3.903,376.222L3.876,375.031L3.856,373.837L3.842,372.243L3.842,370.867L3.849,369.711L3.864,368.558L3.886,367.405L3.915,366.255L3.951,365.107L3.995,363.958L4.046,362.814L4.104,361.669L4.169,360.528L4.241,359.387L4.321,358.248L4.407,357.111L4.501,355.976L4.602,354.842L4.71,353.712L4.825,352.582L4.946,351.455L5.075,350.329L5.211,349.206L5.354,348.084L5.504,346.964L5.66,345.848L5.823,344.733L6.081,343.064L6.262,341.954L6.449,340.846L6.643,339.741L6.844,338.638L7.052,337.537L7.266,336.439L7.487,335.343L7.715,334.249L7.949,333.158L8.19,332.068L8.437,330.983L8.691,329.898L8.952,328.817L9.219,327.738L9.493,326.661L9.773,325.587L10.205,323.981L10.501,322.914L10.804,321.849L11.113,320.787L11.429,319.728L11.75,318.672L12.078,317.618L12.582,316.042L12.926,314.995L13.276,313.952L13.632,312.91L13.994,311.873L14.363,310.837L14.738,309.804L15.119,308.775L15.701,307.236L16.097,306.215L16.499,305.196L16.907,304.18L17.321,303.168L17.741,302.159L18.167,301.152L18.599,300.149L19.037,299.149L19.481,298.152L19.93,297.159L20.385,296.168L21.079,294.689L21.549,293.707L22.025,292.728L22.506,291.753L22.993,290.781L23.486,289.812L23.984,288.847L24.488,287.885L25.254,286.45L25.773,285.495L26.296,284.547L26.825,283.601L27.36,282.658L27.9,281.719L28.72,280.318L29.274,279.388L29.833,278.462L30.682,277.08L31.543,275.705L32.123,274.796L33.004,273.435L33.598,272.533L34.498,271.188L35.105,270.296L36.025,268.965L36.645,268.082L37.584,266.766L38.217,265.893L38.854,265.025L39.497,264.161L40.145,263.3L40.798,262.443L41.786,261.166L42.786,259.898L43.459,259.058L44.136,258.222L44.819,257.39L45.506,256.563L46.198,255.74L46.895,254.92L47.597,254.105L48.303,253.295L49.015,252.488L49.73,251.687L50.451,250.889L51.177,250.095L51.907,249.306L53.011,248.131L53.752,247.354L54.499,246.58L55.25,245.811L56.005,245.046L57.147,243.908L57.914,243.155L58.685,242.406L59.46,241.663L60.241,240.923L61.025,240.188L61.814,239.458L62.608,238.732L63.805,237.653L65.014,236.584L65.824,235.878L66.639,235.176L67.459,234.479L68.282,233.787L69.109,233.1L69.941,232.417L70.777,231.74L71.617,231.067L72.462,230.399L73.309,229.737L74.162,229.079L75.019,228.426L75.879,227.778L77.178,226.816L78.048,226.181L78.923,225.551L79.801,224.926L80.684,224.306L81.57,223.692L82.46,223.082L83.802,222.178L84.703,221.581L86.059,220.697L86.969,220.113L87.881,219.536L88.799,218.963L89.719,218.396L90.643,217.834L91.572,217.277L92.97,216.453L93.907,215.91L94.848,215.373L95.792,214.841L97.214,214.054L98.169,213.535L99.124,213.024L100.085,212.516L101.047,212.016L102.015,211.52L102.985,211.03L103.958,210.546L105.425,209.83L106.408,209.36L107.393,208.897L108.382,208.438L109.87,207.762L110.868,207.318L111.868,206.88L112.87,206.449L113.878,206.022L114.886,205.603L115.899,205.189L116.915,204.78L117.934,204.378L118.955,203.983L119.98,203.592L121.523,203.019L122.556,202.644L123.591,202.276L124.629,201.914L125.671,201.557L126.713,201.207L127.761,200.863L128.81,200.526L129.863,200.195L130.919,199.87L131.976,199.551L133.037,199.239L134.1,198.933L135.7,198.486L137.306,198.054L138.38,197.774L139.456,197.5L140.536,197.233L141.617,196.973L142.701,196.718L143.787,196.471L144.877,196.23L145.968,195.996L147.061,195.768L148.158,195.547L149.256,195.333L150.357,195.125L151.46,194.924L153.119,194.636L154.227,194.452L155.339,194.275L156.451,194.105L157.566,193.941L158.683,193.785L159.803,193.635L160.925,193.492L162.047,193.357L163.174,193.228L164.301,193.106L165.431,192.991L166.561,192.883L167.695,192.782L168.83,192.689L169.966,192.602L171.676,192.485L172.817,192.417L173.96,192.355L175.105,192.301L176.251,192.253L177.4,192.213L178.549,192.18L179.7,192.155L180.854,192.137L182.008,192.126L183.164,192.122L184.32,192.126L185.474,192.137L186.627,192.155L187.778,192.18L188.928,192.213L190.077,192.253L191.222,192.301L192.368,192.355L193.511,192.417L194.652,192.485L195.791,192.561L196.93,192.645L198.065,192.735L199.199,192.832L200.332,192.936L201.462,193.048L202.59,193.166L203.717,193.291L204.842,193.424L205.964,193.563L207.084,193.709L208.202,193.862L209.319,194.022L210.433,194.189L211.544,194.363L212.654,194.543L213.763,194.731L214.867,194.924L215.97,195.125L217.072,195.333L218.169,195.547L219.266,195.768L220.36,195.996L221.451,196.23L222.54,196.471L223.626,196.718L224.711,196.973L225.792,197.233L226.871,197.5L227.948,197.774L229.021,198.054L230.093,198.341L231.162,198.634L232.227,198.933L233.291,199.239L234.352,199.551L235.937,200.031L237.517,200.526L238.566,200.863L239.614,201.207L240.657,201.557L241.699,201.914L242.736,202.276L243.772,202.644L245.319,203.208L246.86,203.787L248.394,204.378L249.412,204.78L250.428,205.188L251.441,205.603L252.45,206.022L253.457,206.449L254.46,206.88L255.11,207.165L313.595,17.675L315.483,13.173L318.211,9.123L321.673,5.681L325.739,2.978L330.252,1.116L335.042,0.167L339.924,0.167L344.713,1.116ZM487.797,668.048L187.169,668.048L337.483,969.085L487.797,668.048ZM392.628,288.486L494.344,618.048L180.622,618.048L282.338,288.487L282.451,288.621L283.196,289.52L283.931,290.424L284.659,291.336L285.378,292.254L286.09,293.179L286.559,293.799L287.258,294.736L287.947,295.678L288.627,296.625L289.299,297.579L289.964,298.541L290.62,299.508L291.267,300.481L291.906,301.461L292.536,302.446L293.156,303.436L293.769,304.434L294.372,305.437L294.967,306.446L295.552,307.459L296.129,308.48L296.697,309.506L297.256,310.538L297.805,311.574L298.345,312.616L298.875,313.663L299.398,314.718L299.91,315.776L300.578,317.194L300.906,317.908L301.39,318.981L301.864,320.061L302.329,321.144L302.784,322.234L303.229,323.327L303.665,324.426L303.949,325.161L304.369,326.268L304.778,327.379L305.177,328.495L305.566,329.615L305.946,330.742L306.315,331.872L306.674,333.006L306.907,333.765L307.25,334.908L307.471,335.67L307.797,336.821L308.007,337.587L308.213,338.359L308.514,339.518L308.804,340.682L308.991,341.459L309.264,342.63L309.525,343.805L309.776,344.982L310.017,346.166L310.246,347.352L310.465,348.543L310.673,349.737L310.87,350.936L310.995,351.737L311.173,352.941L311.341,354.151L311.497,355.363L311.642,356.577L311.775,357.797L311.898,359.021L311.973,359.839L312.077,361.068L312.169,362.3L312.249,363.536L312.318,364.776L312.357,365.604L312.407,366.85L312.433,367.682L312.463,368.933L312.481,370.187L312.479,371.405L312.952,376.288L314.37,380.984L316.678,385.314L319.787,389.109L323.577,392.223L327.902,394.538L332.597,395.964L337.479,396.445L337.487,396.445L342.369,395.964L347.063,394.538L351.388,392.223L355.178,389.109L358.287,385.314L360.595,380.984L362.013,376.288L362.487,371.405L362.483,370.355L362.489,369.769L362.511,368.515L362.532,367.682L362.559,366.85L362.608,365.604L362.669,364.363L362.716,363.536L362.769,362.712L362.857,361.477L362.956,360.248L363.029,359.43L363.148,358.205L363.278,356.985L363.419,355.768L363.572,354.554L363.735,353.344L363.91,352.137L364.033,351.336L364.226,350.137L364.43,348.941L364.645,347.749L364.871,346.561L365.108,345.376L365.355,344.197L365.613,343.022L365.883,341.849L366.162,340.682L366.452,339.518L366.752,338.36L367.063,337.204L367.385,336.053L367.716,334.908L368.058,333.765L368.41,332.627L368.651,331.872L369.02,330.742L369.399,329.615L369.92,328.123L370.323,327.009L370.735,325.899L371.158,324.793L371.59,323.693L372.032,322.598L372.484,321.507L372.945,320.422L373.417,319.34L373.898,318.264L374.388,317.194L374.887,316.13L375.396,315.069L376.089,313.664L376.621,312.616L377.342,311.229L377.895,310.194L378.456,309.164L378.836,308.48L379.607,307.121L380.196,306.109L380.793,305.102L381.399,304.102L382.015,303.105L382.639,302.116L383.271,301.135L383.913,300.156L384.563,299.185L385.221,298.221L385.889,297.261L386.564,296.308L387.478,295.048L388.173,294.11L388.876,293.179L389.588,292.254L390.307,291.336L391.279,290.122L392.017,289.219L392.628,288.486ZM298.979,234.572L337.483,109.818L375.987,234.572L375.276,235.177L374.462,235.878L373.652,236.584L372.444,237.653L371.643,238.372L370.848,239.095L369.663,240.189L368.879,240.923L368.098,241.662L367.323,242.406L366.167,243.531L365.402,244.287L364.643,245.046L363.512,246.194L362.762,246.967L362.019,247.741L361.279,248.522L360.545,249.306L359.815,250.095L359.089,250.889L358.368,251.687L357.652,252.489L356.941,253.295L356.235,254.105L355.533,254.92L354.836,255.739L353.799,256.976L352.774,258.222L352.096,259.059L351.424,259.898L350.424,261.166L349.764,262.017L349.109,262.871L348.458,263.73L347.814,264.592L347.173,265.459L346.538,266.329L345.595,267.643L344.972,268.523L344.355,269.408L343.743,270.296L343.136,271.188L342.535,272.084L341.938,272.984L341.348,273.886L340.761,274.796L340.181,275.706L339.605,276.622L339.036,277.539L338.471,278.463L337.912,279.388L337.483,280.108L337.331,279.852L336.495,278.463L335.646,277.081L334.785,275.706L334.204,274.794L333.323,273.434L332.431,272.084L331.829,271.188L331.222,270.296L330.303,268.966L329.682,268.082L329.058,267.205L328.427,266.329L327.793,265.459L327.152,264.592L326.507,263.73L325.856,262.871L325.201,262.017L324.541,261.166L323.876,260.32L323.206,259.478L322.531,258.64L321.85,257.805L321.166,256.976L320.476,256.15L319.782,255.33L319.083,254.513L318.378,253.699L317.669,252.891L316.956,252.088L316.237,251.287L315.514,250.491L314.42,249.306L313.686,248.522L312.946,247.741L311.829,246.58L311.078,245.811L309.942,244.665L309.181,243.908L308.414,243.155L307.642,242.406L306.867,241.662L305.695,240.555L304.908,239.822L304.117,239.095L303.322,238.372L302.522,237.653L301.718,236.94L300.909,236.23L299.688,235.176L298.979,234.572Z" style="fill:rgb(123,123,123);"/>
        </g>
    </g>
</svg>
