<?xml version="1.0" standalone="no"?>
<!DOCTYPE svg PUBLIC "-//W3C//DTD SVG 20010904//EN"
 "http://www.w3.org/TR/2001/REC-SVG-20010904/DTD/svg10.dtd">
<svg version="1.0" xmlns="http://www.w3.org/2000/svg"
 width="1440.000000pt" height="1440.000000pt" viewBox="0 0 1440.000000 1440.000000"
 preserveAspectRatio="xMidYMid meet">
<metadata>
Created by potrace 1.14, written by Peter Selinger 2001-2017
</metadata>
<g transform="translate(0.000000,1440.000000) scale(0.100000,-0.100000)"
fill="#000000" stroke="none">
<path d="M7091 14383 c-25 -8 -61 -25 -80 -38 -41 -26 -110 -95 -95 -95 5 0 3
-4 -5 -9 -8 -5 -20 -26 -28 -47 -18 -47 -43 -124 -48 -144 -2 -8 -20 -64 -39
-125 -20 -60 -36 -113 -36 -117 0 -4 -5 -19 -12 -35 -6 -15 -12 -32 -12 -38
-2 -13 -35 -125 -43 -145 -3 -8 -7 -19 -8 -25 0 -5 -6 -23 -13 -38 -7 -16 -12
-32 -12 -36 0 -5 -9 -37 -21 -72 -11 -35 -22 -68 -23 -74 -2 -5 -11 -37 -21
-70 -10 -33 -17 -61 -17 -62 1 -2 -5 -18 -14 -38 -8 -19 -14 -38 -14 -42 -1
-9 -58 -200 -67 -223 -3 -8 -7 -19 -8 -25 -2 -5 -12 -39 -24 -74 -11 -35 -21
-72 -21 -81 0 -9 -4 -20 -9 -26 -4 -5 -16 -38 -26 -74 -9 -36 -33 -112 -51
-170 -19 -58 -36 -115 -39 -127 -2 -13 -6 -27 -10 -33 -3 -5 -8 -18 -10 -27
-2 -10 -25 -85 -51 -168 -25 -82 -59 -195 -76 -250 -17 -55 -33 -104 -36 -110
-4 -5 -7 -17 -8 -25 -2 -8 -13 -47 -25 -87 -24 -79 -18 -77 -104 -38 -97 44
-407 131 -425 120 -6 -3 -10 -2 -10 3 0 5 -6 9 -12 9 -22 1 -123 15 -128 18
-3 2 -43 7 -90 11 -147 14 -479 8 -570 -11 -14 -3 -41 -7 -60 -10 -19 -2 -45
-6 -56 -9 -12 -2 -38 -7 -59 -10 -20 -4 -40 -8 -44 -11 -4 -2 -18 -6 -32 -8
-74 -14 -263 -74 -334 -106 -20 -9 -45 -18 -55 -19 -14 -2 -245 -125 -315
-167 -151 -91 -308 -217 -450 -360 -160 -161 -161 -163 -259 -299 -117 -163
-229 -366 -296 -536 -44 -112 -117 -364 -125 -430 -4 -29 -14 -93 -21 -130
-19 -95 -26 -486 -12 -600 13 -103 18 -135 23 -158 3 -13 8 -43 12 -65 3 -23
9 -47 14 -53 5 -6 7 -13 4 -15 -3 -4 7 -45 49 -194 2 -5 5 -17 8 -25 3 -8 14
-37 23 -65 19 -54 37 -99 63 -155 8 -19 16 -37 17 -40 1 -8 64 -129 103 -200
42 -76 124 -161 173 -179 19 -7 43 -17 54 -22 42 -19 225 -10 225 12 0 5 7 9
16 9 18 0 78 43 111 80 26 29 71 115 79 150 5 27 6 125 1 150 -2 8 -9 25 -15
38 -7 12 -10 22 -7 22 6 0 -26 61 -36 70 -4 3 -31 57 -62 120 -60 125 -117
284 -133 370 -2 8 -8 38 -14 65 -41 181 -42 481 -5 665 3 14 8 38 11 54 3 16
9 37 14 46 5 10 7 19 5 22 -5 5 57 194 81 248 50 110 69 147 82 163 8 9 12 17
9 17 -5 0 68 118 90 145 4 6 28 37 52 70 41 55 229 249 276 285 11 8 39 30 61
48 23 17 47 32 52 32 6 0 15 6 19 13 9 14 198 127 213 127 5 0 24 9 43 20 18
11 60 29 93 40 32 11 66 23 74 27 8 3 20 7 25 9 6 1 41 12 79 23 38 11 73 18
77 15 5 -3 9 -1 9 4 0 5 6 9 13 9 6 1 32 4 57 7 65 9 118 15 175 20 28 3 52 5
55 6 27 7 345 -11 345 -20 0 -1 18 -3 40 -6 41 -4 80 -11 80 -14 0 -1 11 -3
25 -6 25 -4 171 -49 200 -61 8 -3 18 -7 23 -8 4 -2 9 -4 12 -5 3 -1 8 -3 13
-4 18 -5 122 -55 122 -59 0 -3 -18 -63 -41 -134 -22 -70 -42 -135 -44 -144 -2
-9 -31 -106 -66 -215 -34 -109 -62 -205 -62 -211 0 -7 -5 -13 -10 -13 -6 0 -8
-3 -4 -6 3 -3 -1 -25 -10 -47 -8 -23 -17 -51 -18 -62 -2 -11 -17 -60 -33 -110
-16 -49 -44 -137 -62 -195 -17 -58 -35 -114 -38 -125 -3 -11 -6 -22 -7 -25 -1
-9 -66 -214 -87 -275 -11 -33 -21 -67 -23 -75 -10 -46 -19 -78 -31 -101 -7
-14 -14 -37 -16 -50 -2 -13 -6 -28 -9 -34 -6 -9 -18 -52 -25 -81 -1 -7 -16
-56 -34 -110 -18 -55 -33 -103 -34 -109 -3 -13 -44 -148 -62 -200 -14 -42 -75
-243 -79 -260 -2 -11 -12 -39 -26 -73 -5 -13 -7 -28 -4 -33 4 -5 1 -9 -4 -9
-6 0 -10 -3 -9 -7 2 -10 -18 -79 -43 -151 -11 -30 -17 -57 -14 -62 3 -5 1 -11
-3 -14 -5 -3 -15 -27 -22 -53 -6 -27 -14 -55 -17 -63 -4 -8 -7 -19 -9 -25 -1
-5 -9 -29 -18 -53 -8 -23 -15 -45 -15 -47 0 -3 -10 -36 -21 -73 -12 -37 -23
-74 -25 -82 -2 -8 -8 -27 -14 -43 -6 -15 -13 -38 -16 -50 -8 -37 -100 -331
-107 -342 -3 -5 -9 -26 -14 -45 -4 -19 -8 -37 -9 -40 -3 -11 -68 -219 -87
-275 -10 -33 -21 -69 -23 -79 -3 -10 -10 -35 -17 -55 -7 -20 -13 -39 -14 -43
-1 -5 -2 -9 -4 -10 -2 -3 -8 -26 -13 -53 -6 -30 -17 -27 -32 8 -8 19 -19 39
-25 42 -6 4 -8 10 -5 15 3 4 -2 13 -10 20 -8 7 -12 16 -9 21 3 5 0 9 -5 9 -6
0 -10 3 -9 8 1 7 -58 131 -77 162 -5 8 -10 17 -11 20 -1 7 -88 183 -99 200 -6
8 -10 17 -11 20 -1 8 -28 62 -54 110 -13 25 -25 47 -25 50 -5 16 -38 86 -44
90 -3 3 -17 27 -30 53 -80 158 -288 223 -456 142 -49 -24 -143 -120 -152 -154
-3 -14 -8 -30 -12 -36 -10 -18 -13 -39 -16 -115 -2 -56 3 -86 17 -120 11 -25
186 -379 390 -787 l370 -741 -13 -39 c-7 -21 -14 -43 -15 -49 -3 -20 -55 -189
-64 -209 -8 -17 -27 -82 -36 -120 -1 -5 -13 -44 -27 -85 -14 -41 -35 -109 -47
-150 -12 -41 -31 -102 -42 -135 -11 -33 -21 -68 -24 -78 -2 -9 -6 -25 -8 -35
-3 -9 -14 -41 -25 -69 -10 -29 -18 -53 -16 -53 2 0 -3 -19 -11 -42 -9 -24 -17
-51 -19 -61 -2 -9 -6 -21 -9 -25 -3 -5 -7 -19 -10 -33 -2 -13 -18 -67 -36
-119 -17 -52 -33 -104 -36 -115 -3 -11 -6 -24 -8 -30 -1 -5 -21 -68 -43 -140
-72 -226 -114 -362 -117 -376 -2 -8 -6 -21 -9 -29 -8 -22 -38 -119 -41 -133
-2 -7 -6 -19 -9 -27 -3 -8 -17 -55 -32 -105 -15 -49 -38 -125 -52 -168 -14
-43 -26 -84 -27 -90 -1 -7 -5 -17 -8 -23 -4 -6 -10 -26 -13 -44 -3 -19 -11
-40 -17 -47 -6 -7 -8 -13 -5 -13 3 0 -6 -32 -19 -71 -13 -39 -26 -80 -28 -92
-3 -12 -14 -49 -25 -82 -11 -33 -54 -172 -96 -310 -42 -137 -79 -257 -82 -265
-3 -8 -7 -20 -9 -27 -3 -15 -24 -83 -31 -103 -3 -8 -7 -21 -9 -28 -1 -6 -22
-76 -47 -155 -49 -156 -81 -259 -82 -267 -1 -3 -12 -39 -25 -80 -13 -41 -25
-78 -26 -82 -1 -5 -2 -9 -4 -10 -1 -2 -3 -10 -5 -18 -10 -42 -55 -181 -65
-199 -6 -12 -8 -21 -6 -21 3 0 1 -12 -5 -27 -6 -16 -12 -35 -14 -43 -2 -9 -20
-68 -40 -132 -20 -65 -36 -119 -36 -120 1 -2 -12 -43 -29 -93 -17 -49 -33 -99
-35 -110 -2 -11 -13 -49 -25 -84 -55 -161 -25 -300 86 -401 102 -94 251 -114
378 -51 98 48 161 134 200 273 8 29 29 98 46 153 17 55 33 107 35 115 2 8 18
60 35 115 18 55 38 120 45 145 7 25 34 113 60 195 25 83 62 202 81 265 20 63
37 121 39 128 3 7 4 13 4 15 -1 1 6 20 14 42 9 22 25 74 37 115 12 41 28 93
37 115 8 22 15 42 15 45 1 6 -1 -1 39 130 17 58 33 112 34 120 1 8 8 29 15 45
6 17 14 39 16 50 2 11 17 60 33 108 17 49 30 92 29 95 -1 4 2 16 6 27 17 44
95 291 101 319 1 6 5 18 8 26 3 8 13 40 22 70 9 30 19 62 22 70 3 8 7 20 9 27
1 6 7 27 12 45 6 18 25 80 42 138 17 58 36 113 41 123 5 10 7 22 4 27 -3 5 -1
11 5 15 5 3 10 16 10 29 0 12 4 26 9 32 8 8 24 64 37 124 3 13 11 28 17 32 7
4 9 8 5 8 -3 0 7 44 24 98 16 53 34 113 40 132 6 19 14 40 19 46 5 6 6 13 4
16 -3 3 0 18 6 34 7 16 13 34 15 41 1 7 9 34 17 60 59 185 101 319 102 328 1
6 4 17 7 25 4 8 11 31 16 50 11 36 80 262 111 359 l17 53 163 -325 c89 -180
162 -329 161 -333 -1 -4 2 -10 7 -13 12 -8 118 -224 115 -233 -1 -5 2 -8 6 -8
5 0 15 -18 22 -41 8 -22 17 -42 21 -44 7 -5 239 -471 239 -480 0 -3 5 -11 10
-18 12 -14 390 -772 391 -784 1 -5 10 -20 21 -35 11 -16 16 -28 12 -28 -3 0
-1 -7 6 -15 7 -9 30 -52 50 -96 21 -44 41 -83 44 -87 7 -6 44 -87 46 -97 0 -3
10 -22 22 -42 36 -64 72 -138 70 -145 -1 -5 2 -8 8 -8 6 0 9 -3 8 -7 -1 -5 10
-32 25 -60 15 -29 27 -55 27 -58 0 -3 10 -22 22 -42 42 -75 212 -418 210 -425
-1 -5 3 -8 8 -8 5 0 9 -3 8 -7 -1 -5 6 -24 17 -43 11 -19 20 -37 20 -40 1 -3
19 -39 40 -80 21 -41 39 -77 40 -80 1 -6 98 -200 135 -270 13 -25 24 -47 25
-50 2 -12 235 -471 258 -507 91 -145 297 -193 452 -106 84 47 112 89 310 488
104 209 193 383 198 386 5 3 7 8 6 10 -5 6 143 303 154 310 5 3 8 9 7 13 -3
11 142 300 154 308 6 4 8 8 4 8 -9 0 62 142 75 151 5 3 8 9 7 13 -3 10 142
299 155 308 5 4 7 8 3 8 -5 0 26 65 66 145 41 80 72 145 68 145 -4 0 -2 4 4 8
10 6 78 143 75 150 -1 1 3 8 9 15 9 11 813 1615 815 1627 1 3 21 43 45 90 45
86 72 141 75 150 0 3 10 23 22 45 11 22 20 43 19 46 0 3 5 14 13 23 12 14 62
111 65 126 1 3 7 14 13 24 10 18 12 17 21 -15 19 -62 49 -161 132 -429 45
-146 88 -287 96 -315 8 -27 19 -58 24 -67 6 -10 10 -24 10 -31 0 -7 11 -46 24
-87 13 -41 36 -115 51 -165 15 -49 29 -97 32 -105 4 -8 7 -20 9 -27 4 -19 25
-86 34 -108 4 -11 13 -40 20 -65 7 -25 19 -62 26 -82 8 -21 11 -38 8 -38 -4 0
-2 -6 3 -12 6 -7 16 -35 23 -63 7 -27 17 -56 23 -62 5 -7 7 -13 4 -13 -4 0 1
-19 9 -42 15 -42 20 -60 29 -104 3 -12 12 -38 20 -58 8 -20 12 -36 9 -36 -4 0
-2 -6 3 -12 8 -10 30 -77 39 -118 0 -3 3 -12 6 -20 3 -8 16 -49 28 -90 13 -41
30 -93 38 -115 7 -22 16 -48 17 -58 2 -10 16 -57 32 -105 15 -48 28 -90 29
-94 1 -5 2 -9 4 -10 1 -2 3 -10 5 -18 6 -23 38 -128 100 -325 64 -204 84 -269
91 -305 3 -13 10 -30 16 -37 6 -7 7 -13 4 -13 -4 0 -2 -8 3 -18 6 -11 12 -30
15 -43 2 -13 11 -43 19 -66 9 -22 13 -44 10 -47 -4 -3 -1 -6 6 -6 7 0 10 -4 7
-8 -3 -5 1 -20 9 -35 7 -14 11 -28 9 -30 -3 -2 5 -30 16 -61 12 -30 19 -60 16
-65 -4 -5 -1 -11 4 -13 6 -2 13 -12 15 -23 2 -11 4 -20 5 -20 1 0 3 -7 5 -16
1 -8 15 -56 31 -105 15 -49 29 -93 30 -99 5 -25 46 -152 55 -167 5 -10 9 -27
9 -38 0 -11 4 -28 9 -38 5 -9 25 -71 45 -137 48 -158 71 -206 121 -259 63 -65
143 -99 235 -100 83 -1 153 17 188 47 12 11 22 17 22 13 0 -3 20 15 45 41 24
26 45 54 45 61 0 6 5 12 12 12 6 0 9 2 6 6 -3 3 2 22 13 42 28 58 20 182 -20
307 -48 150 -83 259 -86 270 -1 6 -5 17 -8 25 -5 15 -48 155 -53 175 -1 6 -17
55 -34 110 -54 171 -58 185 -54 185 3 0 0 9 -7 21 -6 12 -22 60 -35 108 -14
47 -29 95 -34 106 -6 11 -12 31 -14 45 -3 14 -5 26 -7 28 -1 1 -2 5 -3 10 -3
12 -67 215 -76 242 -5 14 -23 72 -40 130 -17 58 -38 122 -46 143 -7 20 -11 37
-9 37 3 0 1 8 -4 19 -6 10 -21 56 -35 102 -13 46 -45 152 -71 234 -25 83 -60
195 -77 250 -16 55 -32 107 -35 115 -7 17 -11 31 -17 58 -3 9 -5 18 -6 20 -2
1 -4 7 -5 12 -1 6 -3 11 -5 13 -1 1 -3 9 -5 17 -2 8 -20 67 -40 130 -20 63
-38 120 -39 125 -14 53 -20 72 -29 83 -5 6 -7 12 -4 12 4 0 -1 19 -9 43 -9 23
-18 51 -20 62 -3 11 -7 27 -9 35 -2 8 -4 16 -5 18 -2 1 -4 7 -5 12 -1 6 -3 11
-5 13 -1 2 -6 20 -13 50 -1 6 -5 17 -8 22 -3 6 -12 33 -19 60 -7 28 -17 56
-23 63 -5 6 -7 12 -4 12 4 0 -1 19 -9 43 -9 23 -17 49 -19 57 -5 22 -45 153
-52 170 -3 8 -5 19 -4 24 1 4 -4 14 -10 22 -6 8 -8 14 -5 14 4 0 2 9 -4 21 -6
11 -13 28 -15 39 -2 10 -15 55 -30 101 -15 46 -28 89 -29 94 -2 6 -11 37 -21
70 -11 33 -19 62 -20 65 0 3 -11 37 -24 75 -13 39 -25 77 -27 85 -2 8 -17 60
-35 115 -17 55 -37 120 -44 145 -13 48 -77 253 -126 405 -16 50 -29 96 -29
103 0 7 -4 20 -9 30 -5 9 -16 41 -25 70 -15 52 -9 94 17 113 5 3 8 8 7 10 -2
4 287 589 320 649 8 14 15 27 15 30 2 13 71 145 77 148 5 2 8 8 8 13 0 9 199
414 221 449 5 8 26 53 48 100 43 95 64 173 49 188 -6 6 -6 12 0 16 13 8 -8 88
-38 150 -77 154 -277 219 -444 145 -103 -45 -123 -75 -362 -555 -176 -353
-222 -438 -232 -428 -7 7 -12 20 -12 28 0 8 -13 52 -28 98 -16 46 -29 85 -29
88 0 3 -9 34 -20 70 -12 36 -36 112 -53 170 -18 58 -43 140 -57 183 -14 43
-26 85 -28 95 -2 9 -4 18 -5 20 -2 1 -3 5 -5 10 -1 4 -5 14 -8 22 -4 8 -8 24
-10 35 -2 11 -7 27 -10 35 -9 21 -38 114 -41 131 -2 8 -6 21 -9 29 -3 8 -11
33 -17 55 -6 22 -14 47 -17 55 -3 8 -7 21 -9 28 -1 6 -15 51 -30 99 -15 47
-27 92 -27 100 0 7 -4 13 -8 13 -3 0 -9 12 -12 28 -7 34 -15 66 -17 70 -2 1
-3 5 -5 10 -1 4 -5 14 -8 22 -4 8 -8 24 -10 35 -2 11 -7 27 -10 35 -7 20 -28
88 -31 103 -2 7 -6 19 -9 27 -9 24 -39 120 -41 133 -2 12 -65 213 -93 297 -8
25 -15 53 -16 63 -1 9 -4 17 -7 17 -4 0 -7 6 -7 13 0 13 -59 210 -73 242 -4
11 -14 43 -21 70 -6 28 -15 55 -18 60 -3 6 -7 21 -9 35 -2 13 -7 29 -11 35 -7
8 -21 53 -23 75 -1 3 -11 35 -24 73 -12 37 -21 67 -19 67 2 0 -4 20 -15 45
-11 25 -19 47 -19 50 0 9 -23 86 -57 193 -19 57 -38 122 -44 145 -6 23 -14 49
-17 57 -3 8 -7 20 -8 25 -3 12 -57 184 -86 275 -12 36 -22 69 -24 75 -1 5 -10
37 -21 70 -10 33 -19 65 -19 70 0 6 -3 15 -7 20 -6 10 -49 150 -52 170 -1 6
-4 15 -7 20 -4 6 -10 24 -14 40 -12 44 -12 45 -15 50 -1 3 -3 8 -4 13 -2 4 -8
27 -16 52 -7 25 -15 50 -16 55 -1 6 -7 25 -13 43 l-10 33 65 30 c36 16 67 29
69 29 2 0 16 5 32 12 15 6 33 12 38 13 6 2 41 12 79 24 37 11 78 23 90 25 11
3 32 7 46 10 13 3 42 8 65 11 22 3 47 8 55 10 45 12 270 20 333 11 15 -2 27 1
27 6 0 5 6 6 13 1 6 -4 19 -9 27 -10 28 -5 125 -14 142 -14 10 0 20 -5 23 -10
4 -5 10 -7 15 -4 11 7 183 -38 255 -65 11 -5 38 -15 60 -23 54 -21 159 -71
220 -105 89 -50 216 -138 223 -154 2 -5 7 -8 12 -8 15 0 175 -154 240 -230
125 -147 233 -325 300 -495 35 -89 62 -172 75 -238 2 -10 6 -26 9 -35 3 -9 8
-34 12 -56 3 -21 8 -48 11 -60 23 -101 21 -407 -4 -541 -3 -16 -7 -43 -9 -60
-9 -63 -16 -90 -61 -230 -19 -60 -47 -132 -61 -160 -14 -27 -27 -56 -28 -64
-2 -8 -8 -17 -14 -21 -7 -4 -10 -9 -9 -11 2 -2 -15 -38 -38 -79 -52 -94 -67
-153 -60 -235 11 -119 88 -229 197 -278 61 -27 65 -28 146 -29 60 0 82 5 137
31 70 33 136 98 172 167 11 22 23 41 27 44 18 13 172 363 182 411 2 8 6 21 9
29 13 30 55 187 61 225 4 22 11 57 17 77 5 20 9 40 8 45 -1 4 0 10 1 13 1 3 3
19 5 35 1 17 3 30 4 30 3 0 8 48 16 140 6 69 5 316 -1 390 -7 86 -21 200 -24
200 -1 0 -3 9 -4 20 -1 11 -6 38 -10 60 -5 22 -10 51 -12 65 -3 14 -9 39 -14
55 -16 49 -44 149 -46 160 0 6 -5 19 -9 30 -4 11 -26 65 -47 120 -22 55 -44
106 -50 113 -6 6 -8 12 -5 12 3 0 -14 37 -38 83 -24 45 -52 98 -61 117 -10 19
-20 37 -23 40 -4 3 -33 46 -65 95 -50 76 -126 176 -146 195 -3 3 -16 19 -28
35 -29 38 -222 235 -222 226 0 -3 -8 3 -18 15 -9 11 -42 40 -72 64 -30 25 -57
47 -60 51 -6 6 -152 109 -178 124 -10 5 -33 19 -52 31 -65 40 -225 122 -290
148 -36 15 -74 31 -85 37 -12 6 -27 11 -35 13 -8 1 -24 7 -35 13 -11 6 -22 11
-25 11 -3 1 -12 3 -20 6 -38 14 -238 66 -265 70 -17 2 -37 6 -45 9 -19 7 -107
19 -240 33 -82 9 -375 9 -455 1 -133 -15 -161 -18 -178 -23 -10 -3 -32 -7 -50
-10 -52 -6 -281 -65 -293 -75 -7 -5 -16 -9 -20 -7 -5 1 -41 -10 -81 -26 -40
-15 -75 -27 -77 -27 -3 0 -18 -6 -33 -14 l-28 -14 -20 69 c-11 38 -24 72 -28
76 -4 4 -7 18 -7 31 0 14 -5 33 -11 44 -6 11 -12 30 -14 41 -3 12 -15 56 -29
97 -70 219 -116 370 -116 385 0 9 -4 16 -8 16 -4 0 -8 8 -8 18 -1 9 -22 82
-48 162 -26 80 -49 156 -52 169 -3 13 -9 31 -13 40 -5 9 -9 19 -9 24 -1 4 -9
33 -18 65 -10 31 -18 59 -19 62 -1 3 -12 39 -25 80 -13 41 -24 77 -24 80 -2
10 -29 96 -47 148 -10 28 -19 54 -18 57 0 3 -12 45 -27 93 -15 48 -28 92 -30
97 -1 6 -16 55 -34 110 -17 55 -37 116 -42 135 -6 19 -13 42 -16 50 -3 8 -6
20 -7 25 -2 6 -20 64 -41 130 -21 66 -39 123 -40 128 -1 4 -3 10 -4 15 -1 4
-3 12 -4 17 -1 6 -5 17 -8 25 -4 8 -16 46 -28 83 -28 91 -98 197 -130 197 -5
0 -10 5 -10 10 0 6 -7 10 -15 10 -8 0 -15 5 -15 10 0 6 -8 10 -19 10 -10 0
-31 6 -46 14 -35 18 -149 18 -204 -1z m126 -1550 c9 -32 18 -60 18 -63 6 -23
30 -105 45 -150 24 -73 60 -188 105 -335 20 -66 52 -168 71 -227 18 -58 35
-114 37 -125 2 -10 7 -25 10 -33 8 -22 63 -198 78 -250 15 -54 14 -51 22 -70
7 -19 28 -87 31 -103 2 -7 5 -19 9 -27 5 -14 57 -186 72 -238 6 -19 -11 -40
-112 -140 -122 -120 -263 -281 -263 -300 0 -6 -4 -12 -9 -14 -4 -1 -37 -47
-73 -100 l-65 -97 -14 27 c-8 15 -16 29 -19 32 -10 10 -50 69 -50 75 0 4 -46
68 -83 115 -7 8 -30 38 -52 65 -22 28 -99 109 -171 182 -73 72 -131 137 -130
145 3 16 65 217 73 238 3 8 7 20 8 26 3 14 48 159 92 296 19 59 35 117 36 128
1 11 5 20 9 20 4 0 8 7 8 15 0 8 14 59 31 112 17 54 32 102 33 108 2 8 34 113
84 270 3 11 7 23 8 28 1 4 2 9 3 12 0 3 0 7 -1 8 -2 2 3 11 11 20 7 10 11 17
7 17 -3 0 0 16 8 35 8 19 12 35 9 35 -3 0 0 7 7 15 7 8 9 15 5 15 -4 0 -1 7 6
17 8 9 13 18 11 20 -3 3 23 104 35 133 8 20 12 32 16 52 2 10 6 21 10 24 4 4
7 16 7 26 0 32 9 19 27 -39z m-747 -2426 c0 -5 8 -17 18 -26 35 -31 179 -261
164 -261 -4 0 -2 -4 3 -8 30 -22 140 -313 152 -402 2 -19 7 -42 10 -50 4 -8 7
-24 8 -35 2 -11 5 -38 9 -60 7 -50 15 -137 20 -240 9 -166 70 -264 204 -327
133 -61 277 -33 383 75 36 36 87 117 74 117 -3 0 -1 9 5 20 12 22 16 58 25
219 3 56 7 106 9 110 2 3 7 33 11 66 3 32 11 67 16 77 5 10 8 18 5 18 -2 0 0
16 6 36 5 20 11 44 13 53 19 93 155 400 201 452 8 8 14 19 14 23 0 7 67 101
107 149 l23 28 9 -23 c8 -19 45 -138 93 -298 6 -19 13 -42 16 -50 3 -8 6 -18
7 -22 2 -5 4 -10 5 -13 1 -3 3 -8 4 -12 2 -5 8 -28 15 -53 7 -25 14 -49 16
-55 1 -5 7 -23 13 -38 7 -16 12 -34 12 -40 1 -7 8 -30 16 -52 8 -22 16 -49 18
-60 2 -11 14 -47 25 -80 12 -33 22 -61 22 -62 0 -2 2 -8 4 -15 2 -7 15 -51 29
-98 14 -47 34 -114 46 -150 12 -36 23 -73 25 -83 2 -9 6 -21 9 -25 3 -5 7 -19
10 -33 5 -26 83 -281 96 -314 4 -11 13 -40 20 -65 7 -25 19 -63 27 -85 8 -22
17 -49 20 -60 2 -11 6 -24 7 -30 2 -5 7 -25 11 -42 4 -18 12 -33 17 -33 5 0 7
-4 4 -8 -3 -5 9 -51 25 -103 17 -52 32 -101 34 -109 2 -8 13 -42 23 -75 28
-82 46 -148 44 -157 -1 -5 2 -8 8 -8 5 0 9 -3 8 -7 -2 -10 9 -52 29 -118 9
-27 17 -54 18 -60 1 -5 3 -14 5 -20 1 -5 6 -17 11 -26 4 -9 11 -31 14 -50 3
-18 9 -36 13 -39 4 -3 9 -14 10 -25 2 -11 31 -107 64 -214 33 -107 61 -199 63
-205 1 -6 7 -24 13 -39 7 -15 11 -31 10 -35 -1 -4 2 -14 5 -22 3 -8 18 -53 32
-100 15 -47 29 -92 32 -100 3 -8 7 -19 8 -25 0 -5 4 -17 7 -25 9 -26 36 -114
44 -145 9 -36 8 -34 21 -65 6 -14 14 -41 18 -60 4 -19 10 -39 13 -45 4 -5 7
-15 8 -21 2 -10 55 -182 116 -374 16 -52 31 -99 32 -105 4 -21 48 -162 62
-197 7 -21 13 -39 11 -39 -1 -1 -968 -2 -2150 -3 -1649 -1 -2147 2 -2147 11 0
6 5 24 11 40 6 15 12 35 14 43 2 8 13 44 25 80 12 36 23 73 25 84 3 10 21 71
41 135 21 64 39 121 40 127 1 6 19 65 40 130 21 66 39 124 40 131 1 7 12 43
24 80 25 78 29 91 31 98 1 5 7 24 69 224 23 74 43 141 45 150 2 9 9 30 15 46
6 17 13 37 15 45 2 9 20 69 40 135 35 116 39 128 45 150 2 6 9 24 16 40 7 17
12 32 12 35 0 3 10 39 23 80 12 41 23 80 25 85 1 6 9 30 17 55 15 45 60 191
62 200 0 3 3 10 6 15 4 6 9 24 13 40 4 17 18 66 33 110 14 44 26 85 27 90 2 6
11 37 21 70 11 33 20 63 21 68 1 4 3 9 4 12 1 3 3 8 4 13 4 14 57 188 66 212
5 14 25 78 44 143 39 127 79 258 152 492 25 83 57 188 71 235 14 47 29 94 34
105 9 24 22 65 25 84 1 7 12 41 23 75 11 33 44 138 72 231 28 94 55 179 60
190 5 11 11 31 13 45 2 14 9 38 15 54 9 23 14 26 26 16 8 -7 15 -17 15 -23z
m-977 -5170 c3 2 18 4 33 4 16 0 116 -2 222 -3 105 -2 192 1 192 5 0 5 4 5 10
2 7 -4 261 -7 430 -4 23 0 103 0 125 -1 171 -5 395 -3 395 3 0 5 4 5 10 2 7
-4 261 -7 430 -4 8 0 33 0 55 0 22 0 47 0 55 0 8 0 92 -1 187 -2 94 0 176 2
182 5 5 4 12 2 16 -4 4 -6 10 -8 14 -5 9 5 61 6 192 4 48 -1 91 1 97 5 6 3 13
2 17 -4 4 -6 10 -8 14 -5 9 5 61 6 192 4 48 -1 91 1 97 5 6 3 13 2 17 -4 4 -6
10 -8 14 -5 9 5 61 6 192 4 48 -1 91 1 97 5 6 3 13 2 17 -4 4 -6 10 -8 14 -5
10 5 53 6 263 4 86 -1 161 2 167 5 20 13 11 -25 -19 -80 -17 -29 -27 -54 -23
-54 4 0 3 -4 -2 -8 -11 -7 -76 -138 -74 -148 0 -4 -3 -10 -8 -13 -10 -8 -155
-298 -153 -307 1 -4 -2 -10 -7 -13 -10 -8 -192 -373 -192 -385 1 -5 -3 -12 -8
-15 -10 -7 -313 -617 -313 -630 0 -5 -3 -11 -7 -13 -10 -4 -248 -481 -245
-490 1 -5 -3 -8 -8 -8 -6 0 -10 -4 -10 -10 0 -13 -823 -1663 -833 -1671 -5 -3
-8 -9 -8 -13 1 -8 -128 -266 -133 -266 -5 0 -1380 2750 -1381 2760 0 3 -3 10
-7 15 -22 35 -78 150 -78 161 0 7 -4 14 -8 16 -7 3 -61 110 -63 126 0 4 -5 12
-10 18 -14 17 -309 611 -309 622 0 6 -4 12 -8 14 -8 3 -65 120 -71 143 -1 6
-8 17 -14 25 -7 8 -33 58 -57 110 -25 52 -49 98 -55 102 -5 4 54 7 133 6 78 0
145 2 148 5 3 2 20 1 39 -3 19 -4 36 -6 38 -3z"/>
</g>
</svg>
